STARTFONT 2.1
FONT -DEC-MiriamFixed-Bold-O-Normal--11-80-100-100-M-60-ISO8859-8
SIZE 8 100 100
FONTBOUNDINGBOX 8 10 0 -2

STARTPROPERTIES 26
FONTNAME_REGISTRY ""
FAMILY_NAME "MiriamFixed"
FOUNDRY "DEC"
WEIGHT_NAME "Bold"
SLANT "O"
SETWIDTH_NAME "Normal"
ADD_STYLE_NAME ""
PIXEL_SIZE 11
RESOLUTION_X 100
RESOLUTION_Y 100
SPACING "M"
AVERAGE_WIDTH 60
CHARSET_REGISTRY "ISO8859"
CHARSET_ENCODING "8"
CHARSET_COLLECTIONS "ASCII ISO8859-8 "
FULL_NAME "MiriamFixed Bold Oblique"
COPYRIGHT "Digital Israel"
CAP_HEIGHT 6
X_HEIGHT 5
_DEC_DEVICE_FONTNAMES "PS=MiriamFixed-BoldOblique-ISOLatinHebrew"
QUAD_WIDTH 6
POINT_SIZE 80
WEIGHT 10
DEFAULT_CHAR 0
FONT_DESCENT 2
FONT_ASCENT 8
ENDPROPERTIES

CHARS 152

STARTCHAR space
ENCODING 32
SWIDTH 540 0
DWIDTH 6 0
BBX 1 1 0 0
BITMAP
00
ENDCHAR

STARTCHAR exclam
ENCODING 33
SWIDTH 540 0
DWIDTH 6 0
BBX 4 7 1 0
BITMAP
10
30
20
60
60
00
C0
ENDCHAR

STARTCHAR quotedbl
ENCODING 34
SWIDTH 540 0
DWIDTH 6 0
BBX 4 3 1 4
BITMAP
50
50
A0
ENDCHAR

STARTCHAR numbersign
ENCODING 35
SWIDTH 540 0
DWIDTH 6 0
BBX 7 8 0 -1
BITMAP
14
14
7E
28
28
FC
50
50
ENDCHAR

STARTCHAR dollar
ENCODING 36
SWIDTH 540 0
DWIDTH 6 0
BBX 6 8 0 -1
BITMAP
08
3C
64
30
18
D8
F0
20
ENDCHAR

STARTCHAR percent
ENCODING 37
SWIDTH 540 0
DWIDTH 6 0
BBX 6 7 0 0
BITMAP
30
54
78
30
78
A8
30
ENDCHAR

STARTCHAR ampersand
ENCODING 38
SWIDTH 540 0
DWIDTH 6 0
BBX 6 6 0 0
BITMAP
1C
34
30
7C
D8
7C
ENDCHAR

STARTCHAR quoteright
ENCODING 39
SWIDTH 540 0
DWIDTH 6 0
BBX 2 3 2 4
BITMAP
40
40
80
ENDCHAR

STARTCHAR parenleft
ENCODING 40
SWIDTH 540 0
DWIDTH 6 0
BBX 5 9 1 -2
BITMAP
08
30
60
40
C0
C0
40
60
20
ENDCHAR

STARTCHAR parenright
ENCODING 41
SWIDTH 540 0
DWIDTH 6 0
BBX 5 9 0 -2
BITMAP
20
30
10
18
18
10
30
60
80
ENDCHAR

STARTCHAR asterisk
ENCODING 42
SWIDTH 540 0
DWIDTH 6 0
BBX 5 4 1 3
BITMAP
20
F8
60
B0
ENDCHAR

STARTCHAR plus
ENCODING 43
SWIDTH 540 0
DWIDTH 6 0
BBX 5 5 0 1
BITMAP
10
20
F8
20
40
ENDCHAR

STARTCHAR comma
ENCODING 44
SWIDTH 540 0
DWIDTH 6 0
BBX 3 3 0 -2
BITMAP
60
20
C0
ENDCHAR

STARTCHAR minus
ENCODING 45
SWIDTH 540 0
DWIDTH 6 0
BBX 5 1 0 3
BITMAP
F8
ENDCHAR

STARTCHAR period
ENCODING 46
SWIDTH 540 0
DWIDTH 6 0
BBX 2 1 1 0
BITMAP
C0
ENDCHAR

STARTCHAR slash
ENCODING 47
SWIDTH 540 0
DWIDTH 6 0
BBX 5 8 1 -1
BITMAP
08
18
10
20
60
40
80
80
ENDCHAR

STARTCHAR zero
ENCODING 48
SWIDTH 540 0
DWIDTH 6 0
BBX 6 7 0 0
BITMAP
38
6C
4C
C8
C8
D0
60
ENDCHAR

STARTCHAR one
ENCODING 49
SWIDTH 540 0
DWIDTH 6 0
BBX 6 7 0 0
BITMAP
0C
3C
18
18
30
30
F8
ENDCHAR

STARTCHAR two
ENCODING 50
SWIDTH 540 0
DWIDTH 6 0
BBX 7 7 0 0
BITMAP
1C
36
06
0C
30
64
FC
ENDCHAR

STARTCHAR three
ENCODING 51
SWIDTH 540 0
DWIDTH 6 0
BBX 6 7 0 0
BITMAP
38
4C
18
30
18
98
F0
ENDCHAR

STARTCHAR four
ENCODING 52
SWIDTH 540 0
DWIDTH 6 0
BBX 5 7 0 0
BITMAP
18
38
58
90
F8
30
30
ENDCHAR

STARTCHAR five
ENCODING 53
SWIDTH 540 0
DWIDTH 6 0
BBX 6 7 0 0
BITMAP
3C
60
70
18
18
98
E0
ENDCHAR

STARTCHAR six
ENCODING 54
SWIDTH 540 0
DWIDTH 6 0
BBX 6 7 0 0
BITMAP
38
64
40
F8
E8
C8
70
ENDCHAR

STARTCHAR seven
ENCODING 55
SWIDTH 540 0
DWIDTH 6 0
BBX 5 7 1 0
BITMAP
F8
D8
30
60
40
C0
C0
ENDCHAR

STARTCHAR eight
ENCODING 56
SWIDTH 540 0
DWIDTH 6 0
BBX 6 7 0 0
BITMAP
38
4C
68
70
D8
98
70
ENDCHAR

STARTCHAR nine
ENCODING 57
SWIDTH 540 0
DWIDTH 6 0
BBX 6 7 0 0
BITMAP
38
6C
4C
7C
18
98
60
ENDCHAR

STARTCHAR colon
ENCODING 58
SWIDTH 540 0
DWIDTH 6 0
BBX 3 4 1 0
BITMAP
60
00
00
C0
ENDCHAR

STARTCHAR semicolon
ENCODING 59
SWIDTH 540 0
DWIDTH 6 0
BBX 4 6 0 -2
BITMAP
30
00
00
60
20
C0
ENDCHAR

STARTCHAR less
ENCODING 60
SWIDTH 540 0
DWIDTH 6 0
BBX 5 5 1 1
BITMAP
18
60
C0
60
20
ENDCHAR

STARTCHAR equal
ENCODING 61
SWIDTH 540 0
DWIDTH 6 0
BBX 5 3 0 2
BITMAP
78
00
F0
ENDCHAR

STARTCHAR greater
ENCODING 62
SWIDTH 540 0
DWIDTH 6 0
BBX 5 5 0 1
BITMAP
20
30
18
30
C0
ENDCHAR

STARTCHAR question
ENCODING 63
SWIDTH 540 0
DWIDTH 6 0
BBX 5 6 1 0
BITMAP
70
98
30
60
00
C0
ENDCHAR

STARTCHAR at
ENCODING 64
SWIDTH 540 0
DWIDTH 6 0
BBX 6 8 0 -1
BITMAP
38
44
9C
A8
A8
9C
C0
70
ENDCHAR

STARTCHAR A
ENCODING 65
SWIDTH 540 0
DWIDTH 6 0
BBX 7 6 0 0
BITMAP
1C
0C
1C
34
6C
E6
ENDCHAR

STARTCHAR B
ENCODING 66
SWIDTH 540 0
DWIDTH 6 0
BBX 6 6 0 0
BITMAP
78
24
7C
68
CC
F8
ENDCHAR

STARTCHAR C
ENCODING 67
SWIDTH 540 0
DWIDTH 6 0
BBX 6 6 0 0
BITMAP
3C
64
C0
C0
D8
70
ENDCHAR

STARTCHAR D
ENCODING 68
SWIDTH 540 0
DWIDTH 6 0
BBX 7 6 0 0
BITMAP
7C
36
26
66
4C
F8
ENDCHAR

STARTCHAR E
ENCODING 69
SWIDTH 540 0
DWIDTH 6 0
BBX 6 6 0 0
BITMAP
7C
24
78
60
C8
F8
ENDCHAR

STARTCHAR F
ENCODING 70
SWIDTH 540 0
DWIDTH 6 0
BBX 7 6 0 0
BITMAP
7C
26
78
68
C0
E0
ENDCHAR

STARTCHAR G
ENCODING 71
SWIDTH 540 0
DWIDTH 6 0
BBX 6 6 0 0
BITMAP
3C
64
C0
DC
C8
78
ENDCHAR

STARTCHAR H
ENCODING 72
SWIDTH 540 0
DWIDTH 6 0
BBX 8 6 0 0
BITMAP
3B
32
3E
64
6C
EC
ENDCHAR

STARTCHAR I
ENCODING 73
SWIDTH 540 0
DWIDTH 6 0
BBX 7 6 0 0
BITMAP
3E
18
18
30
30
F8
ENDCHAR

STARTCHAR J
ENCODING 74
SWIDTH 540 0
DWIDTH 6 0
BBX 6 6 0 0
BITMAP
3C
18
18
90
B0
E0
ENDCHAR

STARTCHAR K
ENCODING 75
SWIDTH 540 0
DWIDTH 6 0
BBX 8 6 0 0
BITMAP
3B
16
38
38
6C
F6
ENDCHAR

STARTCHAR L
ENCODING 76
SWIDTH 540 0
DWIDTH 6 0
BBX 5 6 0 0
BITMAP
38
30
30
60
68
F8
ENDCHAR

STARTCHAR M
ENCODING 77
SWIDTH 540 0
DWIDTH 6 0
BBX 8 6 0 0
BITMAP
73
3E
2A
66
64
EE
ENDCHAR

STARTCHAR N
ENCODING 78
SWIDTH 540 0
DWIDTH 6 0
BBX 7 6 0 0
BITMAP
76
34
74
58
D8
D8
ENDCHAR

STARTCHAR O
ENCODING 79
SWIDTH 540 0
DWIDTH 6 0
BBX 6 6 0 0
BITMAP
38
6C
CC
CC
D8
70
ENDCHAR

STARTCHAR P
ENCODING 80
SWIDTH 540 0
DWIDTH 6 0
BBX 6 6 0 0
BITMAP
78
34
24
78
60
E0
ENDCHAR

STARTCHAR Q
ENCODING 81
SWIDTH 540 0
DWIDTH 6 0
BBX 6 7 0 -1
BITMAP
38
6C
CC
CC
D8
70
18
ENDCHAR

STARTCHAR R
ENCODING 82
SWIDTH 540 0
DWIDTH 6 0
BBX 6 6 0 0
BITMAP
78
2C
6C
70
D8
CC
ENDCHAR

STARTCHAR S
ENCODING 83
SWIDTH 540 0
DWIDTH 6 0
BBX 6 6 0 0
BITMAP
3C
64
78
1C
C8
F0
ENDCHAR

STARTCHAR T
ENCODING 84
SWIDTH 540 0
DWIDTH 6 0
BBX 7 6 0 0
BITMAP
7E
B4
30
20
60
F0
ENDCHAR

STARTCHAR U
ENCODING 85
SWIDTH 540 0
DWIDTH 6 0
BBX 7 6 0 0
BITMAP
76
64
6C
C8
C8
70
ENDCHAR

STARTCHAR V
ENCODING 86
SWIDTH 540 0
DWIDTH 6 0
BBX 6 6 0 0
BITMAP
EC
4C
58
70
60
40
ENDCHAR

STARTCHAR W
ENCODING 87
SWIDTH 540 0
DWIDTH 6 0
BBX 7 6 0 0
BITMAP
C6
54
54
7C
78
50
ENDCHAR

STARTCHAR X
ENCODING 88
SWIDTH 540 0
DWIDTH 6 0
BBX 7 6 0 0
BITMAP
76
34
18
38
6C
CC
ENDCHAR

STARTCHAR Y
ENCODING 89
SWIDTH 540 0
DWIDTH 6 0
BBX 6 6 1 0
BITMAP
EC
68
30
60
60
F0
ENDCHAR

STARTCHAR Z
ENCODING 90
SWIDTH 540 0
DWIDTH 6 0
BBX 7 6 0 0
BITMAP
3E
4C
18
30
6C
F8
ENDCHAR

STARTCHAR bracketleft
ENCODING 91
SWIDTH 540 0
DWIDTH 6 0
BBX 6 9 0 -2
BITMAP
3C
30
30
60
60
60
C0
C0
F0
ENDCHAR

STARTCHAR backslash
ENCODING 92
SWIDTH 540 0
DWIDTH 6 0
BBX 4 8 1 -1
BITMAP
80
80
40
40
20
20
10
10
ENDCHAR

STARTCHAR bracketright
ENCODING 93
SWIDTH 540 0
DWIDTH 6 0
BBX 6 9 0 -2
BITMAP
1C
0C
18
18
18
30
30
30
E0
ENDCHAR

STARTCHAR asciicircum
ENCODING 94
SWIDTH 540 0
DWIDTH 6 0
BBX 5 3 1 4
BITMAP
30
70
98
ENDCHAR

STARTCHAR underscore
ENCODING 95
SWIDTH 540 0
DWIDTH 6 0
BBX 6 1 0 -2
BITMAP
FC
ENDCHAR

STARTCHAR quoteleft
ENCODING 96
SWIDTH 540 0
DWIDTH 6 0
BBX 2 3 3 4
BITMAP
80
80
40
ENDCHAR

STARTCHAR a
ENCODING 97
SWIDTH 540 0
DWIDTH 6 0
BBX 6 5 0 0
BITMAP
78
0C
7C
C8
FC
ENDCHAR

STARTCHAR b
ENCODING 98
SWIDTH 540 0
DWIDTH 6 0
BBX 6 7 0 0
BITMAP
70
30
38
6C
4C
D8
F0
ENDCHAR

STARTCHAR c
ENCODING 99
SWIDTH 540 0
DWIDTH 6 0
BBX 6 5 0 0
BITMAP
38
6C
C0
D8
70
ENDCHAR

STARTCHAR d
ENCODING 100
SWIDTH 540 0
DWIDTH 6 0
BBX 7 7 0 0
BITMAP
0E
06
3C
6C
CC
D8
7C
ENDCHAR

STARTCHAR e
ENCODING 101
SWIDTH 540 0
DWIDTH 6 0
BBX 6 5 0 0
BITMAP
38
6C
FC
C0
78
ENDCHAR

STARTCHAR f
ENCODING 102
SWIDTH 540 0
DWIDTH 6 0
BBX 7 7 0 0
BITMAP
0E
18
7C
30
30
60
F8
ENDCHAR

STARTCHAR g
ENCODING 103
SWIDTH 540 0
DWIDTH 6 0
BBX 6 7 0 -2
BITMAP
34
6C
CC
D8
78
10
E0
ENDCHAR

STARTCHAR h
ENCODING 104
SWIDTH 540 0
DWIDTH 6 0
BBX 6 7 0 0
BITMAP
70
30
3C
6C
68
D8
DC
ENDCHAR

STARTCHAR i
ENCODING 105
SWIDTH 540 0
DWIDTH 6 0
BBX 6 7 0 0
BITMAP
0C
00
78
18
10
30
FC
ENDCHAR

STARTCHAR j
ENCODING 106
SWIDTH 540 0
DWIDTH 6 0
BBX 7 9 0 -2
BITMAP
06
00
3C
0C
08
18
18
30
E0
ENDCHAR

STARTCHAR k
ENCODING 107
SWIDTH 540 0
DWIDTH 6 0
BBX 8 7 0 0
BITMAP
38
18
37
2C
38
68
EC
ENDCHAR

STARTCHAR l
ENCODING 108
SWIDTH 540 0
DWIDTH 6 0
BBX 6 7 0 0
BITMAP
3C
0C
18
18
30
30
F8
ENDCHAR

STARTCHAR m
ENCODING 109
SWIDTH 540 0
DWIDTH 6 0
BBX 7 5 0 0
BITMAP
7C
3E
2A
54
D6
ENDCHAR

STARTCHAR n
ENCODING 110
SWIDTH 540 0
DWIDTH 6 0
BBX 6 5 0 0
BITMAP
D8
6C
68
D8
DC
ENDCHAR

STARTCHAR o
ENCODING 111
SWIDTH 540 0
DWIDTH 6 0
BBX 6 5 0 0
BITMAP
38
6C
CC
D8
70
ENDCHAR

STARTCHAR p
ENCODING 112
SWIDTH 540 0
DWIDTH 6 0
BBX 7 7 0 -2
BITMAP
7C
36
26
2C
78
60
F0
ENDCHAR

STARTCHAR q
ENCODING 113
SWIDTH 540 0
DWIDTH 6 0
BBX 7 7 0 -2
BITMAP
36
6C
CC
C8
78
18
38
ENDCHAR

STARTCHAR r
ENCODING 114
SWIDTH 540 0
DWIDTH 6 0
BBX 7 5 0 0
BITMAP
76
38
30
60
F0
ENDCHAR

STARTCHAR s
ENCODING 115
SWIDTH 540 0
DWIDTH 6 0
BBX 6 5 0 0
BITMAP
3C
64
78
98
F0
ENDCHAR

STARTCHAR t
ENCODING 116
SWIDTH 540 0
DWIDTH 6 0
BBX 5 7 1 0
BITMAP
20
60
F8
60
C0
D8
70
ENDCHAR

STARTCHAR u
ENCODING 117
SWIDTH 540 0
DWIDTH 6 0
BBX 6 5 0 0
BITMAP
EC
6C
C8
D8
7C
ENDCHAR

STARTCHAR v
ENCODING 118
SWIDTH 540 0
DWIDTH 6 0
BBX 7 5 0 0
BITMAP
EE
64
68
30
20
ENDCHAR

STARTCHAR w
ENCODING 119
SWIDTH 540 0
DWIDTH 6 0
BBX 7 5 0 0
BITMAP
D6
54
78
78
50
ENDCHAR

STARTCHAR x
ENCODING 120
SWIDTH 540 0
DWIDTH 6 0
BBX 7 5 0 0
BITMAP
66
3C
38
6C
CC
ENDCHAR

STARTCHAR y
ENCODING 121
SWIDTH 540 0
DWIDTH 6 0
BBX 8 7 0 -2
BITMAP
77
36
34
18
10
20
F0
ENDCHAR

STARTCHAR z
ENCODING 122
SWIDTH 540 0
DWIDTH 6 0
BBX 7 5 0 0
BITMAP
3E
4C
38
66
FC
ENDCHAR

STARTCHAR braceleft
ENCODING 123
SWIDTH 540 0
DWIDTH 6 0
BBX 6 9 0 -2
BITMAP
0C
10
30
70
C0
60
60
40
30
ENDCHAR

STARTCHAR bar
ENCODING 124
SWIDTH 540 0
DWIDTH 6 0
BBX 2 7 3 -1
BITMAP
40
40
40
80
80
80
80
ENDCHAR

STARTCHAR braceright
ENCODING 125
SWIDTH 540 0
DWIDTH 6 0
BBX 6 9 0 -2
BITMAP
30
08
18
18
0C
10
30
30
C0
ENDCHAR

STARTCHAR asciitilde
ENCODING 126
SWIDTH 540 0
DWIDTH 6 0
BBX 5 2 1 3
BITMAP
68
B0
ENDCHAR

STARTCHAR cent
ENCODING 162
SWIDTH 540 0
DWIDTH 6 0
BBX 5 8 0 -1
BITMAP
10
10
78
C8
C0
F0
40
40
ENDCHAR

STARTCHAR sterling
ENCODING 163
SWIDTH 540 0
DWIDTH 6 0
BBX 7 7 0 0
BITMAP
1C
32
78
30
30
64
F8
ENDCHAR

STARTCHAR currency
ENCODING 164
SWIDTH 540 0
DWIDTH 6 0
BBX 5 5 0 1
BITMAP
48
70
50
70
90
ENDCHAR

STARTCHAR yen
ENCODING 165
SWIDTH 540 0
DWIDTH 6 0
BBX 7 7 0 0
BITMAP
66
2C
78
30
F8
60
F0
ENDCHAR

STARTCHAR brokenbar
ENCODING 166
SWIDTH 540 0
DWIDTH 6 0
BBX 4 9 1 -1
BITMAP
10
10
20
20
00
40
40
80
80
ENDCHAR

STARTCHAR section
ENCODING 167
SWIDTH 540 0
DWIDTH 6 0
BBX 5 8 1 -1
BITMAP
38
48
E0
90
48
38
90
E0
ENDCHAR

STARTCHAR dieresis
ENCODING 168
SWIDTH 540 0
DWIDTH 6 0
BBX 3 1 3 5
BITMAP
A0
ENDCHAR

STARTCHAR copyright
ENCODING 169
SWIDTH 540 0
DWIDTH 6 0
BBX 7 7 0 0
BITMAP
1C
66
5A
A2
B4
CC
70
ENDCHAR

STARTCHAR multiply
ENCODING 170
SWIDTH 540 0
DWIDTH 6 0
BBX 6 5 0 1
BITMAP
6C
28
30
50
D8
ENDCHAR

STARTCHAR guillemotleft
ENCODING 171
SWIDTH 540 0
DWIDTH 6 0
BBX 6 4 0 0
BITMAP
24
48
D8
48
ENDCHAR

STARTCHAR logicalnot
ENCODING 172
SWIDTH 540 0
DWIDTH 6 0
BBX 5 3 1 2
BITMAP
F8
10
10
ENDCHAR

STARTCHAR hyphen
ENCODING 173
SWIDTH 540 0
DWIDTH 6 0
BBX 4 1 1 3
BITMAP
F0
ENDCHAR

STARTCHAR registered
ENCODING 174
SWIDTH 540 0
DWIDTH 6 0
BBX 7 7 0 0
BITMAP
1C
66
5A
B2
AC
C8
70
ENDCHAR

STARTCHAR macron
ENCODING 175
SWIDTH 540 0
DWIDTH 6 0
BBX 4 1 2 5
BITMAP
F0
ENDCHAR

STARTCHAR degree
ENCODING 176
SWIDTH 540 0
DWIDTH 6 0
BBX 3 3 1 4
BITMAP
60
A0
C0
ENDCHAR

STARTCHAR plusminus
ENCODING 177
SWIDTH 540 0
DWIDTH 6 0
BBX 5 5 0 1
BITMAP
10
78
20
00
F0
ENDCHAR

STARTCHAR twosuperior
ENCODING 178
SWIDTH 540 0
DWIDTH 6 0
BBX 3 4 2 3
BITMAP
60
A0
40
E0
ENDCHAR

STARTCHAR threesuperior
ENCODING 179
SWIDTH 540 0
DWIDTH 6 0
BBX 3 4 2 3
BITMAP
E0
60
20
C0
ENDCHAR

STARTCHAR acute
ENCODING 180
SWIDTH 540 0
DWIDTH 6 0
BBX 3 2 3 5
BITMAP
60
80
ENDCHAR

STARTCHAR mu
ENCODING 181
SWIDTH 540 0
DWIDTH 6 0
BBX 7 7 0 -2
BITMAP
76
36
64
6C
7E
80
C0
ENDCHAR

STARTCHAR paragraph
ENCODING 182
SWIDTH 540 0
DWIDTH 6 0
BBX 7 8 0 -1
BITMAP
3E
54
54
28
28
50
50
F8
ENDCHAR

STARTCHAR periodcentered
ENCODING 183
SWIDTH 540 0
DWIDTH 6 0
BBX 1 2 2 2
BITMAP
80
80
ENDCHAR

STARTCHAR cedilla
ENCODING 184
SWIDTH 540 0
DWIDTH 6 0
BBX 3 2 0 -2
BITMAP
20
C0
ENDCHAR

STARTCHAR onesuperior
ENCODING 185
SWIDTH 540 0
DWIDTH 6 0
BBX 3 4 2 3
BITMAP
C0
40
40
E0
ENDCHAR

STARTCHAR divide
ENCODING 186
SWIDTH 540 0
DWIDTH 6 0
BBX 5 5 0 1
BITMAP
10
00
F8
00
40
ENDCHAR

STARTCHAR guillemotright
ENCODING 187
SWIDTH 540 0
DWIDTH 6 0
BBX 6 4 0 0
BITMAP
48
6C
48
90
ENDCHAR

STARTCHAR onequarter
ENCODING 188
SWIDTH 540 0
DWIDTH 6 0
BBX 7 7 0 0
BITMAP
C0
44
48
F4
2C
5E
08
ENDCHAR

STARTCHAR onehalf
ENCODING 189
SWIDTH 540 0
DWIDTH 6 0
BBX 7 7 0 0
BITMAP
C0
44
48
F6
2A
44
0E
ENDCHAR

STARTCHAR threequarters
ENCODING 190
SWIDTH 540 0
DWIDTH 6 0
BBX 7 7 0 0
BITMAP
E0
64
28
D4
2C
5E
08
ENDCHAR

STARTCHAR dblunderscore
ENCODING 223
SWIDTH 540 0
DWIDTH 6 0
BBX 6 8 0 -2
BITMAP
00
FC
FC
00
00
00
FC
FC
ENDCHAR

STARTCHAR aleph
ENCODING 224
SWIDTH 540 0
DWIDTH 6 0
BBX 6 6 0 0
BITMAP
6C
6C
7C
F8
D8
D8
ENDCHAR

STARTCHAR beth
ENCODING 225
SWIDTH 540 0
DWIDTH 6 0
BBX 6 6 0 0
BITMAP
78
78
18
30
F8
F8
ENDCHAR

STARTCHAR gimmel
ENCODING 226
SWIDTH 540 0
DWIDTH 6 0
BBX 6 6 0 0
BITMAP
1C
1C
0C
18
F8
D8
ENDCHAR

STARTCHAR daleth
ENCODING 227
SWIDTH 540 0
DWIDTH 6 0
BBX 6 7 0 -1
BITMAP
7C
7C
18
30
30
30
00
ENDCHAR

STARTCHAR he
ENCODING 228
SWIDTH 540 0
DWIDTH 6 0
BBX 6 6 0 0
BITMAP
7C
7C
0C
58
58
58
ENDCHAR

STARTCHAR waw
ENCODING 229
SWIDTH 540 0
DWIDTH 6 0
BBX 5 6 1 0
BITMAP
78
78
18
30
30
30
ENDCHAR

STARTCHAR zayin
ENCODING 230
SWIDTH 540 0
DWIDTH 6 0
BBX 5 7 1 -1
BITMAP
78
78
30
60
60
60
00
ENDCHAR

STARTCHAR het
ENCODING 231
SWIDTH 540 0
DWIDTH 6 0
BBX 6 6 0 0
BITMAP
7C
6C
6C
4C
D8
D8
ENDCHAR

STARTCHAR teth
ENCODING 232
SWIDTH 540 0
DWIDTH 6 0
BBX 6 6 0 0
BITMAP
5C
5C
6C
C8
F8
F8
ENDCHAR

STARTCHAR yod
ENCODING 233
SWIDTH 540 0
DWIDTH 6 0
BBX 5 5 1 1
BITMAP
F8
F8
18
30
00
ENDCHAR

STARTCHAR kaphfinal
ENCODING 234
SWIDTH 540 0
DWIDTH 6 0
BBX 6 8 0 -2
BITMAP
7C
7C
0C
18
18
30
38
38
ENDCHAR

STARTCHAR kaph
ENCODING 235
SWIDTH 540 0
DWIDTH 6 0
BBX 6 7 0 -1
BITMAP
7C
7C
0C
18
F8
F8
00
ENDCHAR

STARTCHAR lamed
ENCODING 236
SWIDTH 540 0
DWIDTH 6 0
BBX 6 8 0 0
BITMAP
30
60
7C
7C
18
30
78
78
ENDCHAR

STARTCHAR memfinal
ENCODING 237
SWIDTH 540 0
DWIDTH 6 0
BBX 6 6 0 0
BITMAP
3C
3C
2C
4C
78
78
ENDCHAR

STARTCHAR mem
ENCODING 238
SWIDTH 540 0
DWIDTH 6 0
BBX 6 6 0 0
BITMAP
6C
7C
6C
4C
D8
D8
ENDCHAR

STARTCHAR nunfinal
ENCODING 239
SWIDTH 540 0
DWIDTH 6 0
BBX 6 8 0 -2
BITMAP
3C
3C
0C
18
18
10
38
38
ENDCHAR

STARTCHAR nun
ENCODING 240
SWIDTH 540 0
DWIDTH 6 0
BBX 6 6 0 0
BITMAP
1C
1C
0C
18
78
78
ENDCHAR

STARTCHAR samekh
ENCODING 241
SWIDTH 540 0
DWIDTH 6 0
BBX 6 6 0 0
BITMAP
7C
2C
4C
4C
78
70
ENDCHAR

STARTCHAR ayin
ENCODING 242
SWIDTH 540 0
DWIDTH 6 0
BBX 6 7 0 -1
BITMAP
6C
6C
6C
4C
F8
F0
00
ENDCHAR

STARTCHAR pefinal
ENCODING 243
SWIDTH 540 0
DWIDTH 6 0
BBX 6 8 0 -2
BITMAP
7C
7C
CC
D8
D8
10
38
38
ENDCHAR

STARTCHAR pe
ENCODING 244
SWIDTH 540 0
DWIDTH 6 0
BBX 6 6 0 0
BITMAP
3C
7C
6C
18
F8
F8
ENDCHAR

STARTCHAR zadikfinal
ENCODING 245
SWIDTH 540 0
DWIDTH 6 0
BBX 6 8 0 -2
BITMAP
6C
6C
2C
78
60
C0
E0
E0
ENDCHAR

STARTCHAR zadik
ENCODING 246
SWIDTH 540 0
DWIDTH 6 0
BBX 6 6 0 0
BITMAP
6C
6C
3C
30
F0
F0
ENDCHAR

STARTCHAR kof
ENCODING 247
SWIDTH 540 0
DWIDTH 6 0
BBX 6 8 0 -2
BITMAP
7C
7C
0C
58
70
F8
80
80
ENDCHAR

STARTCHAR resh
ENCODING 248
SWIDTH 540 0
DWIDTH 6 0
BBX 6 6 0 0
BITMAP
7C
7C
0C
18
18
18
ENDCHAR

STARTCHAR shin
ENCODING 249
SWIDTH 540 0
DWIDTH 6 0
BBX 6 6 0 0
BITMAP
54
54
54
A8
F8
F8
ENDCHAR

STARTCHAR taf
ENCODING 250
SWIDTH 540 0
DWIDTH 6 0
BBX 6 6 0 0
BITMAP
7C
7C
2C
58
D8
D8
ENDCHAR
ENDFONT
